<svg xmlns="http://www.w3.org/2000/svg" viewBox="0 0 45 45">
<path d="M28.618,32.763C28.59,33.104 28.069,38.043 28.016,38.544L27.802,42.916L27.641,43.604L27.457,43.929L27.188,44.233L26.676,44.554L26.025,44.682L19.227,44.682L18.579,44.556L18.068,44.237L17.799,43.937L17.615,43.614L17.45,42.931L17.207,38.634C17.173,38.251 16.723,33.111 16.691,32.709L16.581,31.311L17.974,31.146C19.294,30.99 20.85,30.92 22.641,30.939C24.318,30.928 25.913,30.996 27.364,31.196L28.734,31.385L28.618,32.763ZM20.305,41.765L24.938,41.765L25.107,38.32L25.111,38.279C25.111,38.279 25.389,35.652 25.567,33.94C24.637,33.871 23.659,33.849 22.635,33.855L22.622,33.855C21.567,33.844 20.601,33.865 19.723,33.919L20.116,38.424L20.305,41.765ZM15.62,7.939L29.664,7.939L32.553,6.622L42.899,7.034L44.792,9.365L45.139,12.593L45.139,24.225L43.99,28.785L41.604,30.906L32.337,30.906L31.941,30.594C30.002,29.069 26.557,28.829 22.635,28.851L22.624,28.851C19.422,28.821 17.02,29.022 15.422,29.494C14.721,29.701 14.207,29.896 13.975,30.249L13.543,30.906L3.551,30.906L1.372,28.75L0.18,24.233L0.18,12.558L0.687,9.298L2.72,7.032L13.086,6.621L15.62,7.939ZM12.427,9.566L4.067,9.897L3.436,10.601L3.097,12.783L3.097,23.854L3.989,27.236L4.75,27.989L12.105,27.99C12.671,27.475 13.489,27.023 14.597,26.697C16.383,26.17 19.062,25.902 22.64,25.934C27.058,25.91 30.931,26.406 33.312,27.989L40.495,27.989L41.381,27.202L42.223,23.863L42.223,12.749L41.985,10.534L41.466,9.896L33.131,9.564L30.297,10.855L14.907,10.855L12.427,9.566ZM16.515,3.633L16.577,3.076L16.76,2.552L17.067,2.066L17.517,1.638L18.541,0.888L19.198,0.547L19.952,0.424L22.569,0.424L25.479,0.392L26.11,0.471L26.672,0.698L27.133,1.035L27.179,1.089L27.954,1.758L28.336,2.175L28.597,2.633L28.752,3.119L28.805,3.633L28.805,6.951L16.515,6.951L16.515,3.633ZM18.598,4.868L26.722,4.868L26.722,3.633C26.722,3.573 26.709,3.516 26.688,3.466C26.666,3.416 26.634,3.371 26.592,3.335L25.766,2.621C25.705,2.532 25.609,2.474 25.502,2.476L22.58,2.508L19.952,2.508C19.888,2.508 19.827,2.528 19.773,2.568L18.749,3.318C18.701,3.353 18.663,3.4 18.638,3.454C18.612,3.507 18.598,3.568 18.598,3.633L18.598,4.868Z" fill="currentColor"/></svg>