<svg xmlns="http://www.w3.org/2000/svg" viewBox="0 0 48 48">
    <path d="M18.89,29.854C15.505,30.166 13.44,30.891 12.693,32.026L2.868,32.026L1.19,30.366L0,25.856L0,12.872L0.483,9.765L2.004,8.07L12.693,7.646L15.556,9.134L19.642,9.134L19.642,6.922C19.642,6.852 19.658,6.786 19.685,6.729C19.712,6.672 19.753,6.621 19.804,6.584L20.903,5.779C20.96,5.737 21.026,5.714 21.095,5.714L23.914,5.714L27.049,5.68C27.164,5.679 27.267,5.74 27.332,5.836L28.219,6.602C28.264,6.641 28.298,6.689 28.321,6.743C28.345,6.797 28.358,6.857 28.358,6.921L28.358,9.134L32.358,9.134L35.625,7.646L46.289,8.07L47.666,9.765L48,12.872L48,25.856L46.863,30.366L44.996,32.026L35.625,32.026C34.088,30.818 31.811,30.189 29.105,29.897C29.059,30.686 28.981,31.429 28.981,31.429L28.98,31.433L28.98,31.438C28.98,31.464 28.979,31.49 28.976,31.516L28.394,36.987L28.163,41.716C28.146,42.052 27.907,42.32 27.61,42.32L20.316,42.32C20.022,42.32 19.783,42.055 19.764,41.722L19.502,37.09L19.02,31.57L19.017,31.506L19.017,31.502L19.017,31.497C19.017,31.497 18.935,30.689 18.89,29.854ZM4.047,8.961L2.452,9.024L1.398,10.199L1.11,12.052L2.412,11.44L2.331,12.259L9.427,12.061L11.646,13.016L16.772,13.016L18.575,11.351L29.549,11.351L31.333,13.016L36.407,13.016L38.603,12.061L45.748,12.261L45.809,12.825L45.809,25.351L45.62,26.1L38.604,26.293L36.386,25.356L31.26,25.356L29.458,26.989L18.468,26.989L16.678,25.356L11.587,25.356L9.384,26.293L2.393,26.1L2.387,26.076L2.191,25.334L2.191,12.896L2.282,12.31L0.979,12.899L0.971,12.947L0.971,25.415L2.387,26.076L2.594,26.909L1.125,26.312L2.061,29.862L3.267,31.055L5.052,31.055L3.122,28.862L2.603,26.896L9.515,27.087L11.728,26.146L16.408,26.146L18.197,27.779L29.731,27.779L31.532,26.146L36.244,26.146L38.472,27.087L45.419,26.896L44.95,28.756L42.547,31.055L44.627,31.055L45.995,29.839L46.879,26.332L45.426,26.906L45.634,26.096L47.029,25.462L47.029,12.924L47.022,12.861L45.756,12.29L45.673,11.44L46.933,12.032L46.731,10.154L45.812,9.023L44.12,8.956L45.582,10.718L45.662,11.459L38.472,11.252L36.267,12.21L31.602,12.21L29.819,10.545L18.302,10.545L16.5,12.21L11.787,12.21L9.559,11.252L2.415,11.455L2.52,10.782L4.047,8.961ZM27.651,9.134L27.651,7.12L27.094,6.639L27.204,9.134L27.651,9.134ZM26.496,9.134L26.379,6.49L24.027,6.516L24,6.517L23.914,6.517L21.589,6.517L21.473,9.134L26.496,9.134ZM20.765,9.134L20.87,6.758L20.349,7.14L20.349,9.134L20.765,9.134ZM20.21,32.46L20.604,36.973L20.606,36.995L20.835,41.04L21.619,41.04C21.62,40.387 21.606,39.553 21.53,38.885C21.391,37.663 21.145,35.864 20.779,34.399C20.633,33.815 20.429,33.138 20.21,32.46ZM22.468,41.04L25.454,41.04C25.453,40.36 25.468,39.487 25.548,38.789C25.69,37.537 25.943,35.693 26.318,34.193C26.656,32.842 27.295,31.004 27.733,29.779C26.539,29.699 25.279,29.672 23.974,29.68C22.585,29.667 21.321,29.693 20.182,29.759C20.62,30.984 21.264,32.834 21.604,34.193C21.979,35.693 22.232,37.537 22.374,38.789C22.454,39.487 22.469,40.36 22.468,41.04ZM26.303,41.04L27.087,41.04L27.29,36.895L27.293,36.851L27.784,32.236C27.538,32.988 27.305,33.75 27.143,34.399C26.777,35.864 26.531,37.663 26.392,38.885C26.316,39.553 26.302,40.387 26.303,41.04Z" fill="currentColor"/>
</svg>
